<svg xmlns="http://www.w3.org/2000/svg" viewBox="0 0 869.03 416.13"><defs><style>.cls-1{fill:#fff;}</style></defs><title>Recurso 2564</title><g id="Capa_2" data-name="Capa 2"><g id="Capa_2-2" data-name="Capa 2"><rect class="cls-1" x="83.63" y="227" width="123" height="14" rx="7" transform="translate(-88.87 379.13) rotate(-90)"/><rect class="cls-1" x="123.13" y="135.5" width="45" height="14" rx="7"/><rect class="cls-1" x="109.13" y="171.5" width="73" height="14" rx="7"/><rect class="cls-1" x="91.13" y="208.5" width="109" height="14" rx="7"/><rect class="cls-1" x="91.13" y="245.5" width="107" height="14" rx="7"/><rect class="cls-1" x="676.63" y="227" width="123" height="14" rx="7" transform="translate(504.13 972.13) rotate(-90)"/><rect class="cls-1" x="716.13" y="135.5" width="45" height="14" rx="7"/><rect class="cls-1" x="702.13" y="171.5" width="73" height="14" rx="7"/><rect class="cls-1" x="684.13" y="208.5" width="109" height="14" rx="7"/><rect class="cls-1" x="684.13" y="245.5" width="107" height="14" rx="7"/><path class="cls-1" d="M251.13,281.5h380a0,0,0,0,1,0,0v7a7,7,0,0,1-7,7h-366a7,7,0,0,1-7-7v-7a0,0,0,0,1,0,0Z"/><path class="cls-1" d="M178.13,208.5h160a0,0,0,0,1,0,0v7a7,7,0,0,1-7,7h-146a7,7,0,0,1-7-7v-7a0,0,0,0,1,0,0Z" transform="translate(473.63 -42.63) rotate(90)"/><path class="cls-1" d="M551.13,208.5h146a7,7,0,0,1,7,7v7a0,0,0,0,1,0,0h-160a0,0,0,0,1,0,0v-7A7,7,0,0,1,551.13,208.5Z" transform="translate(839.63 -408.63) rotate(90)"/><path class="cls-1" d="M537.63,37h58a0,0,0,0,1,0,0v7a7,7,0,0,1-7,7h-58a0,0,0,0,1,0,0V44A7,7,0,0,1,537.63,37Z" transform="translate(607.13 -519.13) rotate(90)"/><path class="cls-1" d="M505.63,29h49a0,0,0,0,1,0,0v7a7,7,0,0,1-7,7h-35a7,7,0,0,1-7-7V29a0,0,0,0,1,0,0Z" transform="translate(566.13 -494.13) rotate(90)"/><path class="cls-1" d="M258.13,135.5h366a7,7,0,0,1,7,7v7a0,0,0,0,1,0,0h-380a0,0,0,0,1,0,0v-7A7,7,0,0,1,258.13,135.5Z"/><path class="cls-1" d="M251.13,171.5h153a7,7,0,0,1,7,7v0a7,7,0,0,1-7,7h-153a0,0,0,0,1,0,0v-14a0,0,0,0,1,0,0Z"/><path class="cls-1" d="M478.13,171.5h153a0,0,0,0,1,0,0v14a0,0,0,0,1,0,0h-153a7,7,0,0,1-7-7v0a7,7,0,0,1,7-7Z"/><path class="cls-1" d="M251.13,207.5h96a7,7,0,0,1,7,7v0a7,7,0,0,1-7,7h-96a0,0,0,0,1,0,0v-14a0,0,0,0,1,0,0Z"/><path class="cls-1" d="M533.13,207.5h98a0,0,0,0,1,0,0v14a0,0,0,0,1,0,0h-98a7,7,0,0,1-7-7v0A7,7,0,0,1,533.13,207.5Z"/><rect class="cls-1" x="471.13" y="244.5" width="160" height="14"/><path class="cls-1" d="M360.63,245h87a0,0,0,0,1,0,0v14a0,0,0,0,1,0,0h-80a7,7,0,0,1-7-7v-7A0,0,0,0,1,360.63,245Z" transform="translate(656.13 -152.13) rotate(90)"/><path class="cls-1" d="M441.63,245h80a0,0,0,0,1,0,0v14a0,0,0,0,1,0,0h-87a0,0,0,0,1,0,0v-7A7,7,0,0,1,441.63,245Z" transform="translate(730.13 -226.13) rotate(90)"/><path class="cls-1" d="M404.13,208.5h74a7,7,0,0,1,7,7v7a0,0,0,0,1,0,0h-88a0,0,0,0,1,0,0v-7A7,7,0,0,1,404.13,208.5Z"/><rect class="cls-1" x="251.13" y="244.5" width="160" height="14"/><path class="cls-1" d="M530.13,11.5h33a7,7,0,0,1,7,7v7a0,0,0,0,1,0,0h-47a0,0,0,0,1,0,0v-7A7,7,0,0,1,530.13,11.5Z"/><path class="cls-1" d="M202.52,61.93H457.25a7,7,0,0,1,7,7v7a0,0,0,0,1,0,0H202.52a0,0,0,0,1,0,0v-14A0,0,0,0,1,202.52,61.93Z" transform="translate(10.2 175.93) rotate(-30)"/><path class="cls-1" d="M206.31,91.16H457.13a7,7,0,0,1,7,7v7a0,0,0,0,1,0,0H206.31a7,7,0,0,1-7-7v0A7,7,0,0,1,206.31,91.16Z" transform="translate(-4.64 179.01) rotate(-30)"/><path class="cls-1" d="M221.13,126.5h7a0,0,0,0,1,0,0v36a7,7,0,0,1-7,7h0a7,7,0,0,1-7-7v-29a7,7,0,0,1,7-7Z"/><path class="cls-1" d="M417,61.93H678.74a0,0,0,0,1,0,0v7a7,7,0,0,1-7,7H417a0,0,0,0,1,0,0v-14a0,0,0,0,1,0,0Z" transform="translate(987.89 402.57) rotate(-150)"/><path class="cls-1" d="M423.79,91.07H682a0,0,0,0,1,0,0v7a7,7,0,0,1-7,7H423.79a7,7,0,0,1-7-7v0a7,7,0,0,1,7-7Z" transform="translate(976.13 457.69) rotate(-150)"/><path class="cls-1" d="M660.13,126.5h0a7,7,0,0,1,7,7v36a0,0,0,0,1,0,0h-7a7,7,0,0,1-7-7v-29A7,7,0,0,1,660.13,126.5Z" transform="translate(1320.27 296) rotate(-180)"/><circle class="cls-1" cx="441.13" cy="88.5" r="16"/><path class="cls-1" d="M441.13,79.5a9,9,0,1,1-9,9,9,9,0,0,1,9-9m0-14a23,23,0,1,0,23,23,23,23,0,0,0-23-23Z"/><path class="cls-1" d="M43.31,408.92A25.06,25.06,0,0,1,25.23,416C7.55,416,.07,403.82,0,391.44s8-25.09,25.23-25.09a24.55,24.55,0,0,1,17.47,7.28l-6,5.78a16.37,16.37,0,0,0-11.49-4.49c-11.49,0-16.46,8.57-16.39,16.52s4.62,16.12,16.39,16.12a17.52,17.52,0,0,0,12-4.83Z"/><path class="cls-1" d="M93.63,405.93H68.75l-4.08,9H54.94l21.35-47.59h9.79l21.35,47.59H97.64ZM81.19,377.3l-8.84,20.26H90Z"/><path class="cls-1" d="M158.3,378.93a18.25,18.25,0,0,0-12.1-4.76c-10.2,0-16.39,7.75-16.39,17.55,0,7.82,4.56,15.91,16.39,15.91a15.83,15.83,0,0,0,10.74-3.81v-8.43H144.77v-8h20.4v20.06a23.72,23.72,0,0,1-19,8.57C128.31,416,121,404.23,121,391.72c0-13.4,8.36-25.77,25.16-25.77a25.14,25.14,0,0,1,17.68,7.27Z"/><path class="cls-1" d="M227.86,367.37v27.27c0,14.07-8.63,21.28-20.6,21.28-11.42,0-21.15-6.93-21.15-21.28V367.37H195v27.27c0,8.57,4.9,13.12,12.31,13.12s11.63-5,11.63-13.12V367.37Z"/><path class="cls-1" d="M284,405.93H259.15l-4.08,9h-9.73l21.35-47.59h9.79l21.35,47.59H288ZM271.59,377.3l-8.84,20.26h17.68Z"/><path class="cls-1" d="M356.25,380.43,340.74,401.1H339l-15.17-20.74V415h-9v-47.6h10.33l14.89,20.47L355,367.37h10.27V415h-9Z"/><path class="cls-1" d="M434,391.38c-.14,12.3-7.69,24.61-24.41,24.61s-24.48-12-24.48-24.55,8-25.09,24.48-25.09S434.17,378.93,434,391.38Zm-40.05.2c.2,7.82,4.42,16.18,15.64,16.18s15.43-8.43,15.57-16.25c.13-8-4.35-17-15.57-17S393.79,383.56,394,391.58Z"/><path class="cls-1" d="M496.19,408.92A25.09,25.09,0,0,1,478.1,416c-17.68,0-25.16-12.17-25.22-24.55s8-25.09,25.22-25.09a24.57,24.57,0,0,1,17.48,7.28l-6,5.78a16.33,16.33,0,0,0-11.49-4.49c-11.49,0-16.45,8.57-16.38,16.52s4.62,16.12,16.38,16.12a17.52,17.52,0,0,0,12-4.83Z"/><path class="cls-1" d="M546.51,405.93H521.62l-4.08,9h-9.72l21.35-47.59H539l21.35,47.59h-9.79ZM534.07,377.3l-8.84,20.26H542.9Z"/><path class="cls-1" d="M615.94,381.11a9.68,9.68,0,0,1-6.19,9.18c5.57,1.7,7.61,7.61,7.61,10.6,0,10.61-8,14-17.81,14H577V367.31h22.57C608.93,367.31,615.94,371.52,615.94,381.11Zm-30.13,5.3h13.74c5.64,0,7.48-2.38,7.48-5.1,0-2.17-1.77-5.84-7.48-5.84H585.81Zm0,20.13h13.74c3.67,0,8.91-1.23,8.91-5.71,0-4.29-5.24-6.53-8.91-6.53H585.81Z"/><path class="cls-1" d="M671.08,405.93H646.2l-4.08,9H632.4l21.35-47.59h9.79l21.35,47.59H675.1ZM658.64,377.3l-8.84,20.26h17.68Z"/><path class="cls-1" d="M733.85,367.24h9V414.9h-5.57V415l-25-32.16V414.9h-9V367.31h7.28l23.32,29.51Zm-21.49-7.48c1.63-4,4.28-6.87,8.77-5.85,3.2.75,6.33,4.29,8.43.07l5.44,2.58c-2,5.24-5.37,6.8-8.56,6-3.34-1-6.26-5-8.91,0Z"/><path class="cls-1" d="M800.28,405.93H775.4l-4.08,9h-9.73l21.35-47.59h9.79l21.35,47.59h-9.79ZM787.84,377.3,779,397.56h17.68Z"/><path class="cls-1" d="M860.39,378.8c-1.63-2.72-6.12-5.31-11.28-5.31-6.67,0-9.86,2.79-9.86,6.33,0,4.15,4.89,5.3,10.6,6C859.78,387,869,389.61,869,401c0,10.61-9.38,15.17-20,15.17-9.72,0-17.2-3-20.74-11.7l7.48-3.88c2.11,5.24,7.61,7.55,13.39,7.55s11-2,11-7.14c0-4.48-4.69-6.32-11-7-9.73-1.16-18.7-3.74-18.7-14.41,0-9.8,9.65-13.81,18.42-13.88,7.42,0,15.1,2.11,18.7,9.46Z"/></g></g></svg>